<?xml version="1.0" encoding="iso-8859-1"?>
<!-- Uploaded to: SVG Repo, www.svgrepo.com, Generator: SVG Repo Mixer Tools -->
<svg height="800px" width="800px" version="1.1" id="Layer_1" xmlns="http://www.w3.org/2000/svg" xmlns:xlink="http://www.w3.org/1999/xlink" 
	 viewBox="0 0 512 512" xml:space="preserve">
<path style="fill:#FFD46E;" d="M258.636,8.192v495.616C394.294,502.403,503.83,391.985,503.83,256S394.294,9.597,258.636,8.192z"/>
<path style="fill:#FFE9B7;" d="M258.636,8.192C370.23,9.902,460.255,120.2,460.255,256S370.23,502.098,258.636,503.808
	c-0.871,0.011-1.754,0.022-2.636,0.022C119.133,503.83,8.17,392.867,8.17,256S119.133,8.17,256,8.17
	C256.882,8.17,257.765,8.181,258.636,8.192z"/>
<g>
	<circle style="fill:#FFD46E;" cx="256" cy="84.426" r="21.787"/>
	<circle style="fill:#FFD46E;" cx="205.301" cy="392.17" r="21.787"/>
	<circle style="fill:#FFD46E;" cx="343.149" cy="138.894" r="32.681"/>
</g>
<path style="fill:#FFBE26;" d="M142.661,149.787l-32.681,65.362l32.681,65.362c36.098,0,65.362-29.264,65.362-65.362
	S178.759,149.787,142.661,149.787z"/>
<path style="fill:#FFD46E;" d="M77.299,215.149c0,36.098,29.264,65.362,65.362,65.362V149.787
	C106.562,149.787,77.299,179.051,77.299,215.149z"/>
<path style="fill:#FFE9B7;" d="M142.661,247.83c-18.02,0-32.681-14.661-32.681-32.681s14.661-32.681,32.681-32.681
	s32.681,14.661,32.681,32.681S160.681,247.83,142.661,247.83z"/>
<path d="M437.019,74.981C388.668,26.628,324.38,0,256,0S123.332,26.628,74.981,74.981C26.628,123.332,0,187.62,0,256
	s26.628,132.668,74.981,181.019C123.332,485.372,187.62,512,256,512s132.668-26.628,181.019-74.981
	C485.372,388.668,512,324.38,512,256S485.372,123.332,437.019,74.981z M256,495.66c-132.149,0-239.66-107.51-239.66-239.66
	S123.851,16.34,256,16.34S495.66,123.851,495.66,256S388.149,495.66,256,495.66z"/>
<path d="M256,54.468c-16.519,0-29.957,13.438-29.957,29.957s13.438,29.957,29.957,29.957s29.957-13.438,29.957-29.957
	S272.519,54.468,256,54.468z M256,98.043c-7.509,0-13.617-6.108-13.617-13.617S248.491,70.809,256,70.809
	c7.509,0,13.617,6.108,13.617,13.617S263.509,98.043,256,98.043z"/>
<path d="M205.299,362.214c-16.519,0-29.957,13.438-29.957,29.957s13.438,29.957,29.957,29.957s29.957-13.438,29.957-29.957
	S221.818,362.214,205.299,362.214z M205.299,405.788c-7.509,0-13.617-6.108-13.617-13.617s6.108-13.617,13.617-13.617
	c7.509,0,13.617,6.108,13.617,13.617S212.808,405.788,205.299,405.788z"/>
<path d="M343.149,98.043c-22.526,0-40.851,18.325-40.851,40.851s18.325,40.851,40.851,40.851S384,161.419,384,138.894
	S365.675,98.043,343.149,98.043z M343.149,163.404c-13.516,0-24.511-10.995-24.511-24.511s10.995-24.511,24.511-24.511
	s24.511,10.995,24.511,24.511S356.665,163.404,343.149,163.404z"/>
<path d="M142.661,256c22.526,0,40.851-18.325,40.851-40.851s-18.325-40.851-40.851-40.851s-40.851,18.325-40.851,40.851
	S120.135,256,142.661,256z M142.661,190.638c13.516,0,24.511,10.995,24.511,24.511c0,13.516-10.995,24.511-24.511,24.511
	c-13.516,0-24.511-10.995-24.511-24.511C118.15,201.633,129.145,190.638,142.661,190.638z"/>
<path d="M216.193,215.149c0-40.546-32.986-73.532-73.532-73.532s-73.532,32.986-73.532,73.532c0,13.144,3.526,26.059,10.196,37.349
	c2.296,3.884,7.305,5.174,11.19,2.878c3.885-2.295,5.173-7.305,2.878-11.19c-5.184-8.774-7.924-18.814-7.924-29.036
	c0-31.536,25.656-57.191,57.191-57.191s57.191,25.656,57.191,57.191s-25.656,57.191-57.191,57.191
	c-10.221,0-20.262-2.74-29.037-7.924c-3.882-2.294-8.895-1.007-11.19,2.878c-2.295,3.885-1.007,8.895,2.878,11.19
	c11.29,6.671,24.205,10.196,37.349,10.196C183.207,288.681,216.193,255.695,216.193,215.149z"/>
<circle cx="175.344" cy="328.562" r="8.17"/>
<circle cx="380.231" cy="328.562" r="8.17"/>
<circle cx="142.663" cy="361.243" r="8.17"/>
</svg>